PathFileType	4	(X/Y/Z)	D:\TRACE\spotREDO_2-26-24\spot_justBody_Motion_3_5-v60.trc
DataRate	CameraRate	NumFrames	NumMarkers	Units	OrigDataRate	OrigDataStartFrame	OrigNumFrames
100.00	100.00	      24	9	mm	100.00	1751	      7000
Frame#	Time	front left toe			Front right toe			aft left toe			aft right toe			Arm			FL body			FR body			AL Body			AR Body			
		X1	Y1	Z1	X2	Y2	Z2	X3	Y3	Z3	X4	Y4	Z4	X5	Y5	Z5	X6	Y6	Z6	X7	Y7	Z7	X8	Y8	Z8	X9	Y9	Z9	

1751	17.500	-318.21124	7.61195	-138.27696	217.41202	13.39701	-128.65979	-223.59558	46.18861	351.90530	280.22214	80.73557	361.67661	-91.92056	803.30804	-342.72852	-173.28111	544.57343	-306.23224	-17.76558	548.93842	-320.86667	-101.19795	576.43591	573.47491	39.97282	580.72321	563.37854	
1752	17.510	-317.02802	7.02771	-138.34233	218.01921	13.46363	-128.96022	-222.60403	46.52888	351.89178	281.75085	71.28442	362.86124	-91.75043	803.02557	-343.18817	-173.20557	544.37488	-306.32751	-17.79265	548.64862	-321.02408	-100.91779	578.01398	574.24054	40.48296	581.13409	563.16559	
1753	17.520	-316.34598	6.81885	-138.38730	218.75766	13.33384	-128.96765	-221.75629	46.95014	351.69019	283.94208	63.34044	362.33633	-91.88898	802.72278	-343.57379	-173.17731	544.25262	-306.43726	-17.60030	548.43280	-321.02509	-100.83057	578.43768	574.04083	40.67012	581.63013	562.99506	
1754	17.530	-315.49109	6.57503	-138.48230	219.66693	12.96505	-128.94577	-221.20479	47.33043	351.51361	285.66373	62.50291	360.58072	-91.68757	802.46625	-343.91010	-172.67722	543.77661	-306.66110	-17.17555	548.22198	-321.02237	-101.05261	579.26154	574.07013	40.84180	582.47113	563.09271	
1755	17.540	-314.59286	6.04798	-138.96320	221.35298	12.45757	-129.12285	-219.85864	48.73067	351.06540	288.25623	64.86447	361.62915	-91.59055	802.01276	-344.56979	-172.00031	542.70416	-306.85645	-16.54543	547.56134	-320.95142	-101.31333	580.21423	573.65063	40.05396	585.17603	563.27057	
1756	17.550	-313.52405	5.68901	-139.51920	222.09598	12.68194	-129.35414	-219.09164	49.02986	350.55545	288.02719	65.56881	362.05026	-91.94191	800.89954	-344.92636	-171.41759	541.83606	-306.83160	-15.88974	547.32135	-320.76852	-101.68266	581.20795	573.36377	38.17812	587.23712	563.06720	
1757	17.560	-312.66403	5.67943	-139.54398	222.58638	12.93720	-129.39000	-218.71210	49.25412	350.47421	287.90378	65.89447	361.08945	-92.01743	800.17468	-345.42337	-171.04710	542.00098	-306.69370	-15.63305	547.39679	-320.66519	-101.92401	582.14288	573.74500	37.77029	587.88867	563.27600	
1758	17.570	-312.14096	5.51575	-139.83479	223.57542	12.86151	-129.40541	-217.74538	49.36189	350.48273	288.83130	66.53951	361.20093	-91.25021	800.05200	-345.57089	-170.84213	542.09534	-306.56952	-15.55240	547.33734	-320.50482	-102.07471	582.69025	574.02393	38.47285	587.68298	563.71460	
1759	17.580	-310.97885	5.21399	-139.98326	224.51639	12.78781	-129.51079	-216.97527	49.65540	350.29648	289.38037	66.81005	360.82697	-90.07465	800.62482	-345.50034	-170.69798	542.20654	-306.34695	-15.42234	547.43274	-320.31628	-102.79269	583.66632	574.30688	38.25800	587.92609	563.82123	
1760	17.590	-310.23376	5.16646	-140.08112	225.29912	12.72693	-129.75414	-216.04288	50.04368	350.24313	290.21347	67.16344	360.75259	-89.67528	800.87158	-345.23041	-170.61360	542.44025	-306.27151	-15.36231	547.65436	-320.15747	-102.87180	583.89758	574.36407	38.40499	588.25354	564.01733	
1761	17.600	-309.18652	4.62558	-140.26637	226.07295	12.39789	-130.06650	-215.15414	50.16985	350.12180	290.93665	67.44122	360.58234	-89.79730	801.06512	-344.84830	-170.51070	542.54370	-306.02716	-15.27909	547.76251	-320.04504	-102.65749	584.03137	574.51331	38.32475	588.63770	564.07111	
1762	17.610	-308.51364	4.38370	-140.28453	227.07719	12.50648	-130.03842	-214.60056	50.54128	349.86490	291.96283	67.91305	360.57916	-90.25745	801.26813	-344.71075	-170.43848	542.55383	-305.78598	-15.29839	547.87311	-319.83673	-102.20686	584.05591	574.74402	38.77429	588.56213	564.17035	
1763	17.620	-307.44592	4.23279	-140.25073	227.79486	12.51611	-130.28120	-213.87152	51.19711	349.47748	292.79962	68.23978	360.27432	-90.52102	801.11169	-344.54352	-170.38132	542.40942	-305.59097	-15.22781	547.51831	-319.43823	-101.79101	584.14899	574.95575	39.46426	588.48706	564.33087	
1764	17.630	-306.71585	4.05762	-140.19673	228.93918	12.40264	-130.36162	-212.93678	51.28689	349.33231	293.66061	68.53226	359.82968	-90.54211	800.92352	-344.32108	-170.34355	542.32648	-305.50027	-15.19009	547.40826	-319.28870	-101.50844	584.24506	575.04993	39.96764	588.65460	564.53729	
1765	17.640	-305.65411	3.79973	-140.33737	229.79706	12.37807	-130.70807	-211.70888	51.44428	349.29568	294.96814	68.89221	359.64447	-90.50111	800.80371	-344.12244	-170.33827	542.18146	-305.19180	-15.17269	547.18512	-319.19659	-100.84043	584.57343	575.31750	40.43414	588.81677	564.65759	
1766	17.650	-304.64539	3.70354	-140.39235	230.43001	12.19835	-130.93176	-210.91446	51.75137	349.09204	295.60104	69.04344	359.52988	-90.44560	800.63550	-344.02762	-170.24666	541.90234	-304.80658	-15.00583	546.96863	-318.92310	-100.16347	584.83667	575.63660	41.20274	589.20441	565.00024	
1767	17.660	-303.78345	3.45517	-140.43852	231.95262	12.27920	-130.94424	-210.03870	52.14070	349.14273	297.35135	69.63072	359.27789	-90.37186	800.55029	-343.94977	-170.02615	541.60150	-304.31030	-14.80730	546.83679	-318.65979	-99.60661	585.06421	575.86371	42.08275	589.48840	565.10278	
1768	17.670	-302.70572	3.10217	-140.38588	232.59016	12.29194	-130.93076	-209.08513	52.29420	348.95697	297.92572	69.65289	359.32025	-90.21140	800.17676	-343.80438	-169.73921	541.40076	-303.95129	-14.54500	546.65936	-318.46817	-98.90475	585.44476	576.16370	42.60247	589.78998	565.15332	
1769	17.680	-301.82544	2.97504	-140.35370	233.55237	11.98287	-131.16359	-207.95757	52.52566	349.06845	298.56006	69.86484	359.18451	-89.99148	799.74652	-343.66165	-169.35698	541.07074	-303.82138	-14.08490	546.37378	-318.19110	-98.39811	585.83130	576.32660	43.06047	590.28455	565.25482	
1770	17.690	-300.70847	2.99225	-140.30911	234.63199	11.98789	-131.23764	-207.04581	52.56516	349.05020	299.92715	70.26706	358.96240	-89.60053	799.45135	-343.58835	-169.01611	540.79810	-303.61945	-13.72632	546.26245	-317.93289	-97.55773	586.19867	576.64484	43.73994	590.83301	565.55176	
1771	17.700	-299.86945	2.89632	-140.58641	235.66870	12.02924	-131.42093	-206.18761	52.87876	349.05161	300.58319	70.36773	358.85318	-89.28113	799.21661	-343.50229	-168.62471	540.55096	-303.22018	-13.54575	546.08881	-317.78912	-96.90580	586.55078	576.94458	44.49534	591.14545	565.73090	
1772	17.710	-298.66644	2.75165	-140.70967	236.40938	11.88819	-131.44971	-204.70988	52.98199	349.03198	301.81012	70.72586	358.56128	-88.67496	799.05658	-343.27893	-168.15952	540.41412	-302.72678	-12.92069	545.80249	-317.32779	-96.27534	586.97675	577.33356	45.11718	591.56696	565.94427	
1773	17.720	-297.68918	2.60219	-140.60110	237.95815	11.91285	-131.19633	-204.13394	53.32439	348.75854	302.75192	70.91775	358.22110	-87.97711	798.79028	-343.02182	-167.46416	540.18018	-302.40036	-12.24521	545.48871	-316.97769	-95.56985	587.40790	577.58649	45.99391	592.08936	566.33588	
1774	17.730	-296.44818	2.60633	-140.55060	238.85522	11.79869	-131.59225	-201.66092	53.22793	348.68118	304.08673	70.99491	358.15936	-87.47516	798.62085	-342.96829	-166.66345	539.82556	-302.14728	-11.53526	545.29578	-316.73987	-94.99325	587.92950	577.87689	46.37374	592.50140	566.59790	
